<?xml version="1.0" encoding="utf-8"?>
<!-- Uploaded to: SVG Repo, www.svgrepo.com, Generator: SVG Repo Mixer Tools -->
<svg fill="#000000" width="800px" height="800px" viewBox="0 0 32 32" version="1.1" xmlns="http://www.w3.org/2000/svg">
<title>webcam-slash</title>
<path d="M8.784 12.257c-0.032-0.005-0.070-0.008-0.107-0.008-0.377 0-0.689 0.282-0.736 0.647l-0 0.004c-0.047 0.329-0.074 0.71-0.074 1.096 0 4.493 3.641 8.135 8.134 8.137h0c0.002 0 0.005 0 0.007 0 0.386 0 0.765-0.028 1.137-0.081l-0.042 0.005c0.368-0.052 0.648-0.364 0.648-0.742 0-0.414-0.335-0.749-0.749-0.749-0.036 0-0.071 0.003-0.106 0.007l0.004-0c-0.27 0.038-0.581 0.060-0.898 0.061h-0c-3.662-0.005-6.63-2.972-6.634-6.634v-0c0-0.317 0.022-0.628 0.065-0.933l-0.004 0.036c0.004-0.030 0.007-0.065 0.007-0.101 0-0.379-0.281-0.692-0.645-0.743l-0.004-0zM24 29.25h-17.189l3.743-3.743c1.6 0.782 3.481 1.239 5.47 1.239 1.515 0 2.968-0.266 4.315-0.753l-0.088 0.028c0.3-0.103 0.512-0.382 0.512-0.711 0-0.414-0.336-0.75-0.75-0.75-0.094 0-0.184 0.017-0.267 0.049l0.005-0.002c-1.114 0.405-2.399 0.639-3.739 0.639-6.218 0-11.259-5.041-11.259-11.259 0-1.34 0.234-2.625 0.663-3.817l-0.025 0.078c0.030-0.078 0.047-0.168 0.047-0.262 0-0.414-0.336-0.75-0.75-0.75-0.329 0-0.608 0.212-0.71 0.506l-0.002 0.005c-0.459 1.261-0.725 2.717-0.725 4.235 0 4.511 2.345 8.474 5.882 10.737l0.051 0.031-4.715 4.718c-0.136 0.136-0.22 0.323-0.22 0.53 0 0.414 0.335 0.749 0.749 0.749 0 0 0.001 0 0.001 0h19c0.414 0 0.75-0.336 0.75-0.75s-0.336-0.75-0.75-0.75v0zM30.531 29.469l-6.013-6.012c2.602-2.34 4.23-5.718 4.23-9.477 0-7.031-5.7-12.73-12.73-12.73-3.759 0-7.137 1.629-9.467 4.219l-0.010 0.012-4.011-4.011c-0.135-0.131-0.32-0.212-0.523-0.212-0.414 0-0.75 0.336-0.75 0.75 0 0.203 0.081 0.388 0.213 0.523l27.999 28.001c0.136 0.136 0.324 0.22 0.531 0.22 0.415 0 0.751-0.336 0.751-0.751 0-0.207-0.084-0.395-0.22-0.531v0zM16 2.75c0.005 0 0.011 0 0.017 0 6.203 0 11.231 5.028 11.231 11.231 0 3.344-1.461 6.346-3.78 8.403l-0.012 0.010-2.198-2.198c1.763-1.501 2.874-3.722 2.874-6.202 0-4.489-3.639-8.129-8.129-8.129-2.481 0-4.702 1.111-6.193 2.863l-0.010 0.011-2.198-2.198c2.057-2.33 5.051-3.792 8.387-3.792 0.004 0 0.008 0 0.011 0h-0.001zM10.896 9.835c1.218-1.51 3.069-2.469 5.144-2.469 3.641 0 6.593 2.952 6.593 6.593 0 2.074-0.958 3.925-2.456 5.134l-0.013 0.010z"></path>
</svg>